<svg width="140" height="60" viewBox="0 0 140 60" fill="none" xmlns="http://www.w3.org/2000/svg">
<path d="M28.1211 17.3203C28.0273 17.4766 27.957 17.6406 27.9102 17.8125C27.8789 17.9844 27.8555 18.1562 27.8398 18.3281H27.6758C27.5508 18.3281 27.4414 18.3125 27.3477 18.2812C27.2539 18.2344 27.1445 18.1953 27.0195 18.1641C27.082 18.7578 27.1211 19.3594 27.1367 19.9688C27.1523 20.5781 27.1602 21.1797 27.1602 21.7734C27.1602 22.5234 27.1523 23.2734 27.1367 24.0234C27.1211 24.7578 27.1133 25.5 27.1133 26.25C27.1133 26.6094 27.0898 26.9688 27.043 27.3281C27.0117 27.6719 26.918 28.0078 26.7617 28.3359C26.793 28.6016 26.8164 28.8594 26.832 29.1094C26.8477 29.3438 26.8555 29.5938 26.8555 29.8594C26.8555 30.5938 26.8086 31.3281 26.7148 32.0625C26.6367 32.7812 26.5352 33.5 26.4102 34.2188C26.3633 34.5 26.3164 34.7891 26.2695 35.0859C26.2383 35.3672 26.1836 35.6406 26.1055 35.9062C26.0742 35.9844 26.0273 36.0625 25.9648 36.1406C25.918 36.2188 25.8789 36.2969 25.8477 36.375C25.6602 36.7812 25.4492 37.1875 25.2148 37.5938C24.9961 37.9844 24.7305 38.3438 24.418 38.6719C24.1836 38.6875 23.957 38.75 23.7383 38.8594C23.5195 38.9688 23.3164 39.0234 23.1289 39.0234C22.957 39.0234 22.8164 38.9375 22.707 38.7656L22.4727 38.8594C22.3945 38.8906 22.3086 38.9141 22.2148 38.9297C21.6836 38.7109 21.1758 38.4453 20.6914 38.1328C20.2227 37.8203 19.832 37.4141 19.5195 36.9141H19.4258C19.2852 36.9141 19.1836 36.8828 19.1211 36.8203C19.043 36.7422 18.957 36.6484 18.8633 36.5391C18.7852 36.4141 18.7148 36.3047 18.6523 36.2109C18.4648 35.9141 18.2617 35.6172 18.043 35.3203C17.8242 35.0234 17.5664 34.7734 17.2695 34.5703C17.1445 34.1016 16.957 33.7031 16.707 33.375C16.457 33.0312 16.1992 32.6641 15.9336 32.2734C15.7305 31.4922 15.3555 30.7656 14.8086 30.0938C14.8867 30.0156 14.9258 29.9609 14.9258 29.9297C14.9258 29.8516 14.8945 29.7891 14.832 29.7422C14.7852 29.6797 14.7617 29.6172 14.7617 29.5547C14.7617 29.4922 14.7773 29.4453 14.8086 29.4141C14.6055 29.1953 14.4336 28.9531 14.293 28.6875C14.168 28.4062 14.043 28.125 13.918 27.8438C13.8086 27.5625 13.6836 27.2812 13.543 27C13.418 26.7188 13.2617 26.4609 13.0742 26.2266C12.9023 26.3359 12.793 26.4688 12.7461 26.625C12.7148 26.7812 12.6992 26.9453 12.6992 27.1172C12.6992 27.2422 12.6992 27.3672 12.6992 27.4922C12.7148 27.6172 12.7227 27.7422 12.7227 27.8672C12.7227 28.1797 12.6836 28.4844 12.6055 28.7812C12.543 29.0781 12.4961 29.3828 12.4648 29.6953C12.4492 29.9141 12.4414 30.1562 12.4414 30.4219C12.457 30.6875 12.4492 30.9531 12.418 31.2188C12.4023 31.4844 12.3633 31.7422 12.3008 31.9922C12.2383 32.2422 12.1289 32.4531 11.9727 32.625C11.8789 33.5156 11.7617 34.4062 11.6211 35.2969C11.4805 36.1875 11.3477 37.0781 11.2227 37.9688C11.1914 38.125 11.1602 38.3203 11.1289 38.5547C11.0977 38.7891 11.0586 39.0234 11.0117 39.2578C10.9805 39.5078 10.9492 39.7422 10.918 39.9609C10.9023 40.1953 10.8945 40.3828 10.8945 40.5234C10.8945 40.6797 10.9336 40.8281 11.0117 40.9688C11.0898 41.125 11.1289 41.2734 11.1289 41.4141C11.1289 41.5234 11.0898 41.5859 11.0117 41.6016C10.9492 41.6328 10.9102 41.6953 10.8945 41.7891C11.0039 42.1328 11.0586 42.5234 11.0586 42.9609C11.0586 43.0859 11.0508 43.2109 11.0352 43.3359C11.0195 43.4766 10.9961 43.6094 10.9648 43.7344C10.9336 43.8125 10.8789 43.8828 10.8008 43.9453C10.7227 44.0234 10.6836 44.0938 10.6836 44.1562C10.6836 44.2188 10.7148 44.2656 10.7773 44.2969C10.6836 44.3906 10.5664 44.4531 10.4258 44.4844C10.2852 44.5156 10.1836 44.6016 10.1211 44.7422C9.96484 44.6172 9.80859 44.5 9.65234 44.3906C9.49609 44.2969 9.34766 44.1875 9.20703 44.0625L9.13672 44.0391C9.02734 44.0391 8.93359 44.0703 8.85547 44.1328C8.79297 44.2109 8.70703 44.25 8.59766 44.25C8.56641 44.25 8.53516 44.2422 8.50391 44.2266C8.48828 44.2266 8.46484 44.2266 8.43359 44.2266L8.29297 43.6172C8.24609 43.4141 8.18359 43.2266 8.10547 43.0547C8.23047 42.7266 8.30859 42.3516 8.33984 41.9297C8.38672 41.5234 8.43359 41.1094 8.48047 40.6875C8.52734 40.2656 8.59766 39.8594 8.69141 39.4688C8.78516 39.0938 8.95703 38.7656 9.20703 38.4844C9.20703 38.3594 9.16016 38.2734 9.06641 38.2266C8.98828 38.1797 8.94922 38.0781 8.94922 37.9219C8.94922 37.8906 8.95703 37.8359 8.97266 37.7578C9.00391 37.6797 9.02734 37.5938 9.04297 37.5C9.07422 37.4062 9.09766 37.3203 9.11328 37.2422C9.14453 37.1484 9.16797 37.0781 9.18359 37.0312C9.30859 36.4219 9.40234 35.7969 9.46484 35.1562C9.54297 34.5156 9.73828 33.9219 10.0508 33.375C10.0352 33.3125 10.0273 33.2188 10.0273 33.0938C10.0273 32.8281 10.0508 32.5703 10.0977 32.3203C10.1602 32.0703 10.1914 31.8125 10.1914 31.5469C10.1914 31.3281 10.168 31.125 10.1211 30.9375C10.168 30.7656 10.2305 30.6016 10.3086 30.4453C10.4023 30.2734 10.4492 30.1016 10.4492 29.9297C10.4492 29.7734 10.3945 29.6641 10.2852 29.6016C10.3633 29.5391 10.4102 29.4688 10.4258 29.3906C10.457 29.3125 10.4727 29.2344 10.4727 29.1562C10.4883 29.0781 10.5039 29.0078 10.5195 28.9453C10.5508 28.8672 10.6133 28.8047 10.707 28.7578C10.6914 28.6016 10.6758 28.4531 10.6602 28.3125C10.6602 28.1719 10.6602 28.0234 10.6602 27.8672C10.6602 27.2891 10.6914 26.7188 10.7539 26.1562C10.8164 25.5781 10.8477 24.9922 10.8477 24.3984C10.8477 23.8203 10.8008 23.2578 10.707 22.7109L10.9648 22.1953C10.8086 22.0703 10.707 21.8672 10.6602 21.5859C10.6133 21.3047 10.582 21 10.5664 20.6719C10.5508 20.3438 10.5195 20.0234 10.4727 19.7109C10.4414 19.3828 10.3555 19.1172 10.2148 18.9141V18.7031C10.2148 18.4531 10.1992 18.2109 10.168 17.9766C10.1367 17.7422 10.1211 17.5078 10.1211 17.2734V17.0625C10.1992 17.0312 10.2539 16.9766 10.2852 16.8984C10.332 16.8203 10.3633 16.7422 10.3789 16.6641H10.4727C10.6602 16.6641 10.8477 16.6484 11.0352 16.6172C11.2227 16.5859 11.4102 16.5703 11.5977 16.5703H11.9023C12.0898 16.7109 12.2539 16.875 12.3945 17.0625C12.5352 17.25 12.707 17.4219 12.9102 17.5781V18C13.0508 18.1875 13.1602 18.3906 13.2383 18.6094C13.3164 18.8281 13.3945 19.0547 13.4727 19.2891C13.5664 19.5234 13.6602 19.75 13.7539 19.9688C13.8477 20.1875 13.9805 20.375 14.1523 20.5312C14.1211 20.6875 14.1055 20.8125 14.1055 20.9062C14.1055 21.1094 14.1211 21.3125 14.1523 21.5156C14.1992 21.7188 14.2305 21.9141 14.2461 22.1016C14.3086 22.1797 14.3633 22.2812 14.4102 22.4062C14.457 22.5156 14.5352 22.5859 14.6445 22.6172C14.7227 23.2266 14.8789 23.8047 15.1133 24.3516C15.3633 24.8984 15.543 25.4688 15.6523 26.0625C15.7773 26.1875 15.8711 26.3438 15.9336 26.5312C15.9961 26.7031 16.0586 26.875 16.1211 27.0469C16.1992 27.2188 16.2773 27.3828 16.3555 27.5391C16.4492 27.6797 16.582 27.7812 16.7539 27.8438C16.8477 28.2188 16.9648 28.5938 17.1055 28.9688C17.2461 29.3438 17.4648 29.6641 17.7617 29.9297C17.7617 30.2422 17.8086 30.5156 17.9023 30.75C18.0117 30.9688 18.1289 31.1797 18.2539 31.3828C18.3945 31.5703 18.5195 31.7578 18.6289 31.9453C18.7383 32.1328 18.8086 32.3359 18.8398 32.5547C19.0586 32.8828 19.3086 33.1875 19.5898 33.4688C19.8867 33.75 20.1836 34.0234 20.4805 34.2891C20.793 34.5391 21.0977 34.7969 21.3945 35.0625C21.6914 35.3281 21.9648 35.6094 22.2148 35.9062C22.3867 35.9219 22.5273 35.9609 22.6367 36.0234C22.7617 36.0703 22.9023 36.1094 23.0586 36.1406C23.168 36.0625 23.2539 35.9688 23.3164 35.8594C23.3945 35.7344 23.4648 35.6094 23.5273 35.4844C23.5898 35.3594 23.6523 35.2422 23.7148 35.1328C23.793 35.0078 23.8867 34.8984 23.9961 34.8047C23.9961 34.7734 23.9883 34.75 23.9727 34.7344C23.9727 34.7031 23.9727 34.6719 23.9727 34.6406C23.9727 34.4688 23.9961 34.3359 24.043 34.2422C24.1055 34.1328 24.1758 34.0156 24.2539 33.8906V33.2812C24.3789 33.0469 24.4648 32.7969 24.5117 32.5312C24.5586 32.2656 24.582 32 24.582 31.7344C24.582 31.5156 24.5742 31.2969 24.5586 31.0781C24.543 30.8438 24.5352 30.6094 24.5352 30.375C24.5352 30.2344 24.543 30.0938 24.5586 29.9531C24.5742 29.7969 24.6055 29.6562 24.6523 29.5312C24.6836 29.5 24.7383 29.4531 24.8164 29.3906C24.8945 29.3125 24.9336 29.2656 24.9336 29.25C24.9336 29.1719 24.9102 29.0938 24.8633 29.0156C24.8164 28.9375 24.793 28.8594 24.793 28.7812C24.793 28.6719 24.8398 28.5859 24.9336 28.5234V28.3828C24.9336 28.3047 24.918 28.2344 24.8867 28.1719C24.8711 28.0938 24.8242 28.0391 24.7461 28.0078C24.8242 27.9141 24.8789 27.8047 24.9102 27.6797C24.9414 27.5391 24.957 27.3984 24.957 27.2578C24.9727 27.1016 24.9727 26.9531 24.957 26.8125C24.957 26.6719 24.957 26.5391 24.957 26.4141C24.957 26.2734 24.9648 26.125 24.9805 25.9688C24.9961 25.8125 25.0586 25.6797 25.168 25.5703C25.1211 25.3828 25.0898 25.2031 25.0742 25.0312C25.0586 24.8438 25.0508 24.6562 25.0508 24.4688C25.0508 24.1406 25.0664 23.8125 25.0977 23.4844C25.1289 23.1562 25.1445 22.8203 25.1445 22.4766C25.1445 22.3516 25.1367 22.2266 25.1211 22.1016C25.1055 21.9609 25.0977 21.8281 25.0977 21.7031C25.0977 21.5781 25.1211 21.5234 25.168 21.5391C25.2305 21.5391 25.2617 21.5 25.2617 21.4219C25.2617 21.3125 25.2461 21.2031 25.2148 21.0938C25.1992 20.9844 25.1836 20.875 25.168 20.7656C25.1367 20.5 25.1133 20.2344 25.0977 19.9688C25.082 19.6875 25.0742 19.4062 25.0742 19.125C25.0742 18.9531 25.0742 18.7812 25.0742 18.6094C25.0898 18.4219 25.1211 18.2422 25.168 18.0703C25.0742 17.9297 25.0117 17.7969 24.9805 17.6719C24.9648 17.5312 24.9492 17.4062 24.9336 17.2969L24.8867 16.9453C24.8711 16.8203 24.8242 16.6953 24.7461 16.5703C24.7305 16.5547 24.7227 16.5078 24.7227 16.4297C24.7227 16.3047 24.7539 16.2109 24.8164 16.1484C24.7383 15.8828 24.6289 15.625 24.4883 15.375C24.3633 15.125 24.2852 14.8516 24.2539 14.5547C24.082 14.4609 23.9492 14.3125 23.8555 14.1094C23.7773 13.8906 23.7383 13.6953 23.7383 13.5234C23.7383 13.3203 23.793 13.125 23.9023 12.9375C24.0117 12.7344 24.1836 12.6328 24.418 12.6328C24.5117 12.6328 24.5977 12.6641 24.6758 12.7266C24.7695 12.7734 24.8555 12.8359 24.9336 12.9141C25.0273 12.9766 25.1133 13.0391 25.1914 13.1016C25.2852 13.1484 25.3789 13.1719 25.4727 13.1719C25.5352 13.1719 25.6289 13.1562 25.7539 13.125C25.9258 13.3594 26.0977 13.5781 26.2695 13.7812C26.457 13.9688 26.6445 14.1641 26.832 14.3672C26.832 14.6328 26.8789 14.875 26.9727 15.0938C27.0664 15.3125 27.168 15.5234 27.2773 15.7266C27.3867 15.9141 27.4805 16.1016 27.5586 16.2891C27.6523 16.4766 27.6914 16.6797 27.6758 16.8984C27.707 17.0078 27.7695 17.0859 27.8633 17.1328C27.957 17.1797 28.043 17.2422 28.1211 17.3203ZM44.9258 25.4297C44.832 25.5703 44.7773 25.7266 44.7617 25.8984C44.7461 26.0703 44.7383 26.2266 44.7383 26.3672C44.7383 26.5547 44.7383 26.7422 44.7383 26.9297C44.7539 27.1016 44.7617 27.2734 44.7617 27.4453V27.7969C44.7305 27.9062 44.6836 28.0156 44.6211 28.125C44.5586 28.2344 44.5117 28.3438 44.4805 28.4531C44.2617 29.0312 44.1523 29.6094 44.1523 30.1875V30.2344C44.0742 30.4219 43.9961 30.5938 43.918 30.75C43.8555 30.9062 43.793 31.0625 43.7305 31.2188C43.668 31.3594 43.6211 31.5156 43.5898 31.6875C43.5586 31.8438 43.5508 32.0312 43.5664 32.25C43.3477 32.7969 43.0586 33.2969 42.6992 33.75C42.3398 34.1875 41.9883 34.6406 41.6445 35.1094C41.3164 35.2344 41.0117 35.3984 40.7305 35.6016C40.4648 35.8047 40.207 36.0312 39.957 36.2812C39.4727 36.4375 38.9961 36.6172 38.5273 36.8203C38.0586 37.0234 37.6367 37.2969 37.2617 37.6406C36.9648 37.6719 36.668 37.7188 36.3711 37.7812C36.0742 37.8438 35.7852 37.9375 35.5039 38.0625H35.2227C35.082 38.0625 34.9805 38.0312 34.918 37.9688C34.7148 38.0781 34.5039 38.1562 34.2852 38.2031C34.0664 38.2344 33.8477 38.25 33.6289 38.25C33.3477 38.25 33.0664 38.2344 32.7852 38.2031C32.5195 38.1562 32.2461 38.1094 31.9648 38.0625C31.8086 37.8438 31.5898 37.6797 31.3086 37.5703C31.0273 37.4453 30.7773 37.3281 30.5586 37.2188C30.1055 36.5938 29.7773 35.9922 29.5742 35.4141C29.3711 34.8203 29.1602 34.1562 28.9414 33.4219C28.9727 33.2031 29.0273 32.9922 29.1055 32.7891C29.1836 32.5703 29.2148 32.3359 29.1992 32.0859C29.4805 31.2734 29.8477 30.5391 30.3008 29.8828C30.7695 29.2109 31.3008 28.5703 31.8945 27.9609C31.8945 27.8672 31.9102 27.7891 31.9414 27.7266C31.9883 27.6641 31.9961 27.5703 31.9648 27.4453C31.9805 27.4609 32.0117 27.4688 32.0586 27.4688C32.1836 27.4688 32.2617 27.4375 32.293 27.375C32.3242 27.2969 32.332 27.2109 32.3164 27.1172C32.8789 26.7578 33.3867 26.3438 33.8398 25.875C34.3086 25.4062 34.8398 25.0156 35.4336 24.7031C35.4805 24.5625 35.5586 24.4453 35.668 24.3516C35.7773 24.2578 35.8633 24.1484 35.9258 24.0234C36.4258 23.8828 36.8789 23.6719 37.2852 23.3906C37.6914 23.1094 38.1211 22.8594 38.5742 22.6406C38.8242 22.5 39.0586 22.4062 39.2773 22.3594C39.5117 22.2969 39.7617 22.2344 40.0273 22.1719C40.1211 22.1406 40.207 22.1172 40.2852 22.1016C40.3633 22.0859 40.4492 22.0781 40.543 22.0781C40.8242 22.0781 41.0977 22.1328 41.3633 22.2422C41.6289 22.3359 41.9023 22.3828 42.1836 22.3828C42.2617 22.3828 42.3242 22.3828 42.3711 22.3828C42.4336 22.3672 42.4961 22.3516 42.5586 22.3359C42.8242 22.6641 43.1602 22.9141 43.5664 23.0859C43.6602 23.3203 43.7695 23.5234 43.8945 23.6953C44.0352 23.8672 44.1758 24.0391 44.3164 24.2109C44.457 24.3672 44.582 24.5469 44.6914 24.75C44.8164 24.9375 44.8945 25.1641 44.9258 25.4297ZM42.582 26.6484C42.582 26.5703 42.5742 26.5 42.5586 26.4375C42.4023 26.3906 42.2539 26.3281 42.1133 26.25C41.9727 26.1719 41.8164 26.1328 41.6445 26.1328C41.5352 26.1328 41.4258 26.1562 41.3164 26.2031C41.3008 26.0938 41.2539 26.0156 41.1758 25.9688C41.1133 25.9219 41.0352 25.8828 40.9414 25.8516C40.8633 25.8047 40.7773 25.7734 40.6836 25.7578C40.6055 25.7266 40.5352 25.6797 40.4727 25.6172C40.4258 25.4922 40.3711 25.3672 40.3086 25.2422C40.2617 25.1016 40.168 25 40.0273 24.9375C39.8867 25.0781 39.7227 25.1953 39.5352 25.2891C39.3477 25.3672 39.1523 25.4453 38.9492 25.5234C38.7617 25.6016 38.5742 25.6953 38.3867 25.8047C38.2148 25.9141 38.0664 26.0469 37.9414 26.2031H37.5195C37.4258 26.375 37.293 26.5078 37.1211 26.6016C36.9492 26.6797 36.8008 26.7969 36.6758 26.9531C36.4258 27.0781 36.1914 27.2344 35.9727 27.4219C35.7695 27.5938 35.5664 27.7812 35.3633 27.9844C35.1602 28.1719 34.957 28.3672 34.7539 28.5703C34.5664 28.7734 34.3633 28.9609 34.1445 29.1328C33.9414 29.5703 33.7148 29.9531 33.4648 30.2812C33.2305 30.5938 33.0039 30.9141 32.7852 31.2422C32.582 31.5703 32.4023 31.9297 32.2461 32.3203C32.1055 32.6953 32.0352 33.1641 32.0352 33.7266V33.9609C32.0352 34.0391 32.043 34.1172 32.0586 34.1953C32.2617 34.4141 32.4258 34.6484 32.5508 34.8984C32.6914 35.1484 32.918 35.3281 33.2305 35.4375C33.543 35.5625 33.8711 35.6172 34.2148 35.6016C34.5742 35.5859 34.918 35.625 35.2461 35.7188C35.9961 35.5781 36.7148 35.3516 37.4023 35.0391C38.1055 34.7109 38.7695 34.3203 39.3945 33.8672C39.4883 33.7891 39.5977 33.7109 39.7227 33.6328C39.8477 33.5391 39.9492 33.4453 40.0273 33.3516C40.1055 33.2734 40.168 33.1875 40.2148 33.0938C40.2773 33 40.3398 32.9141 40.4023 32.8359C40.5273 32.6328 40.668 32.4297 40.8242 32.2266C40.9805 32.0234 41.1445 31.8359 41.3164 31.6641C41.3945 31.3203 41.4961 30.9922 41.6211 30.6797C41.7461 30.3516 41.8711 30.0312 41.9961 29.7188C42.1211 29.4062 42.2227 29.0859 42.3008 28.7578C42.3945 28.4297 42.4414 28.0859 42.4414 27.7266C42.4414 27.6484 42.4336 27.5625 42.418 27.4688C42.418 27.375 42.4102 27.2891 42.3945 27.2109C42.5195 27.0391 42.582 26.8516 42.582 26.6484ZM79.4492 33.6328C79.4492 33.9453 79.3945 34.2031 79.2852 34.4062C79.1914 34.5938 79.082 34.8125 78.957 35.0625C78.9258 35.0469 78.8867 35.0391 78.8398 35.0391C78.7461 35.0391 78.6602 35.0625 78.582 35.1094C78.5039 35.1562 78.4258 35.1953 78.3477 35.2266C77.8945 35.7266 77.4258 36.2109 76.9414 36.6797C76.4727 37.1484 75.9492 37.5625 75.3711 37.9219C75.2148 38.0156 75.0586 38.1094 74.9023 38.2031C74.7461 38.2812 74.582 38.3594 74.4102 38.4375C74.3477 38.4688 74.2852 38.5 74.2227 38.5312C74.1758 38.5469 74.1289 38.5703 74.082 38.6016C73.9727 38.6641 73.8555 38.7656 73.7305 38.9062C73.6211 39.0469 73.4883 39.1875 73.332 39.3281C73.1914 39.4844 73.0352 39.6094 72.8633 39.7031C72.6914 39.8125 72.5039 39.8594 72.3008 39.8438C72.1758 39.9219 72.0664 40.0234 71.9727 40.1484C71.8789 40.2734 71.7695 40.3984 71.6445 40.5234C70.9727 40.7578 70.3555 41.0625 69.793 41.4375C69.2461 41.8281 68.6758 42.2031 68.082 42.5625C67.7227 42.7969 67.3633 42.9844 67.0039 43.125C66.9258 43.1562 66.832 43.1797 66.7227 43.1953C66.6289 43.2109 66.5273 43.2344 66.418 43.2656C65.9023 43.3906 65.3789 43.4922 64.8477 43.5703C64.332 43.6484 63.8086 43.6875 63.2773 43.6875C62.6211 43.6875 61.9883 43.6094 61.3789 43.4531C61.3789 43.4062 61.3633 43.375 61.332 43.3594C61.3008 43.3438 61.2617 43.3281 61.2148 43.3125C61.1836 43.2969 61.1523 43.2734 61.1211 43.2422C61.0898 43.2266 61.0898 43.1875 61.1211 43.125C60.7773 43.0938 60.4727 43.0078 60.207 42.8672C59.957 42.7266 59.793 42.4766 59.7148 42.1172C59.668 42.1484 59.6289 42.1875 59.5977 42.2344C59.5664 42.2812 59.5117 42.2969 59.4336 42.2812C59.2148 41.9688 58.9727 41.6797 58.707 41.4141C58.4414 41.1484 58.2461 40.8281 58.1211 40.4531C58.0898 40.375 58.0664 40.2969 58.0508 40.2188C58.0508 40.1562 58.043 40.0859 58.0273 40.0078C57.9492 39.7891 57.8086 39.6797 57.6055 39.6797C57.6367 39.6172 57.6523 39.5391 57.6523 39.4453C57.6523 39.3984 57.6445 39.3516 57.6289 39.3047C57.6289 39.2578 57.6289 39.2109 57.6289 39.1641C57.6289 39.0859 57.6523 39.0078 57.6992 38.9297C57.543 38.5703 57.4336 38.2188 57.3711 37.875C57.3086 37.5156 57.2773 37.1484 57.2773 36.7734C57.2773 36.2891 57.3008 35.8125 57.3477 35.3438C57.3945 34.8594 57.418 34.375 57.418 33.8906C57.5117 33.7031 57.582 33.4844 57.6289 33.2344C57.6914 32.9844 57.793 32.7812 57.9336 32.625C57.918 32.5312 57.8867 32.4844 57.8398 32.4844C57.793 32.4688 57.7695 32.4219 57.7695 32.3438C57.7695 32.0625 57.8242 31.7578 57.9336 31.4297C58.043 31.1016 58.0977 30.7656 58.0977 30.4219C58.2383 30.3438 58.3242 30.2266 58.3555 30.0703C58.4023 29.9141 58.4883 29.7891 58.6133 29.6953V29.5781C58.6133 29.3438 58.6367 29.1094 58.6836 28.875C58.7461 28.6406 58.8008 28.4141 58.8477 28.1953C58.9102 27.9609 58.957 27.7344 58.9883 27.5156C59.0352 27.2812 59.0508 27.0547 59.0352 26.8359C59.0664 26.7891 59.1055 26.7031 59.1523 26.5781C59.2148 26.4375 59.2695 26.2969 59.3164 26.1562C59.3789 26 59.4258 25.8516 59.457 25.7109C59.5039 25.5703 59.5273 25.4688 59.5273 25.4062C59.5273 25.3125 59.5117 25.2266 59.4805 25.1484C59.4492 25.0703 59.4336 24.9844 59.4336 24.8906C59.4336 24.8125 59.457 24.7031 59.5039 24.5625C59.5508 24.4062 59.5898 24.2812 59.6211 24.1875C59.6836 23.9219 59.7383 23.6484 59.7852 23.3672C59.8477 23.0703 59.9023 22.7891 59.9492 22.5234C60.0898 21.6641 60.1914 20.8047 60.2539 19.9453C60.3164 19.0703 60.3555 18.1953 60.3711 17.3203C60.5898 17.1953 60.8164 17.0781 61.0508 16.9688C61.3008 16.8594 61.5586 16.8047 61.8242 16.8047C61.9023 16.8047 61.9805 16.8125 62.0586 16.8281C62.1367 16.8438 62.2148 16.8672 62.293 16.8984C62.3711 17.2109 62.4961 17.4609 62.668 17.6484C62.8398 17.8359 62.9961 18.0625 63.1367 18.3281C63.043 18.5781 62.9805 18.8359 62.9492 19.1016L62.8789 19.8984C62.8633 20.1641 62.832 20.4297 62.7852 20.6953C62.7383 20.9453 62.6602 21.1875 62.5508 21.4219C62.582 21.5 62.5977 21.5781 62.5977 21.6562V21.8906C62.5977 22.1094 62.5742 22.3203 62.5273 22.5234C62.4961 22.7266 62.457 22.9375 62.4102 23.1562C62.3633 23.3594 62.3242 23.5625 62.293 23.7656C62.2617 23.9688 62.2617 24.1719 62.293 24.375C62.2461 24.4531 62.1992 24.5156 62.1523 24.5625C62.1055 24.5938 62.0742 24.6484 62.0586 24.7266L62.0117 25.1719C61.9805 25.3438 61.9492 25.5156 61.918 25.6875C61.9023 25.8438 61.8789 26.0078 61.8477 26.1797C61.7383 26.6484 61.6133 27.1172 61.4727 27.5859C61.3477 28.0547 61.2852 28.5391 61.2852 29.0391V29.1797C61.1445 29.3984 61.0352 29.6719 60.957 30C60.8789 30.3125 60.8555 30.6016 60.8867 30.8672C60.7148 31.3203 60.5508 31.7656 60.3945 32.2031C60.2383 32.6406 60.1602 33.0938 60.1602 33.5625C60.1602 33.6406 60.1602 33.7266 60.1602 33.8203C60.1758 33.8984 60.1914 33.9766 60.207 34.0547C60.082 34.3672 60.0039 34.6875 59.9727 35.0156C59.9414 35.3281 59.9258 35.6406 59.9258 35.9531C59.9258 36.1719 59.9336 36.4297 59.9492 36.7266C59.9805 37.0078 60.0195 37.3047 60.0664 37.6172C60.1289 37.9141 60.1992 38.2031 60.2773 38.4844C60.3555 38.7656 60.4414 38.9922 60.5352 39.1641C60.8945 39.7422 61.3633 40.1953 61.9414 40.5234C62.5352 40.8672 63.1602 41.0859 63.8164 41.1797C64.082 41.0859 64.293 41.0312 64.4492 41.0156C64.6211 41 64.8555 41 65.1523 41.0156C65.4023 40.8906 65.6523 40.7969 65.9023 40.7344C66.168 40.6719 66.4336 40.6016 66.6992 40.5234C66.7773 40.4922 66.8555 40.4609 66.9336 40.4297C67.0273 40.3984 67.1055 40.3672 67.168 40.3359C67.2461 40.3047 67.332 40.2344 67.4258 40.125C67.5195 40.0156 67.6055 39.9219 67.6836 39.8438C68.0117 39.75 68.3242 39.6172 68.6211 39.4453C68.918 39.2891 69.207 39.125 69.4883 38.9531L70.3555 38.4375C70.6523 38.2656 70.9648 38.1172 71.293 37.9922C71.418 37.9453 71.4883 37.8828 71.5039 37.8047C71.5352 37.7109 71.582 37.6016 71.6445 37.4766C71.6758 37.5078 71.7227 37.5234 71.7852 37.5234C71.9727 37.5234 72.1055 37.4688 72.1836 37.3594C72.2617 37.2344 72.3555 37.1094 72.4648 36.9844C72.668 36.9531 72.8633 36.8984 73.0508 36.8203C73.2383 36.7266 73.3789 36.5859 73.4727 36.3984C73.8633 36.3203 74.207 36.1797 74.5039 35.9766C74.8008 35.7734 75.0898 35.5547 75.3711 35.3203C75.6523 35.0703 75.9336 34.8359 76.2148 34.6172C76.4961 34.3828 76.8164 34.1953 77.1758 34.0547C77.2227 33.9766 77.2539 33.9062 77.2695 33.8438C77.2852 33.7812 77.3086 33.7109 77.3398 33.6328C77.6055 33.6016 77.8164 33.5312 77.9727 33.4219C78.1289 33.2969 78.3086 33.1719 78.5117 33.0469C78.9492 33.0938 79.2617 33.2891 79.4492 33.6328ZM82.1914 35.7891C82.1133 35.9141 82.0195 36.0312 81.9102 36.1406C81.8008 36.2344 81.6992 36.3359 81.6055 36.4453C81.4961 36.4922 81.3711 36.5156 81.2305 36.5156C81.1055 36.5156 80.9805 36.5156 80.8555 36.5156C80.7461 36.5 80.6367 36.5 80.5273 36.5156C80.4336 36.5156 80.3555 36.5469 80.293 36.6094C80.168 36.5781 80.0742 36.5234 80.0117 36.4453C79.9492 36.3516 79.8398 36.2969 79.6836 36.2812C79.6211 36.2656 79.5586 36.2656 79.4961 36.2812C79.2617 36.0156 79.043 35.7344 78.8398 35.4375C78.6523 35.1406 78.4727 34.8594 78.3008 34.5938C78.2852 34.0156 78.2383 33.4297 78.1602 32.8359C78.1445 32.6953 78.1211 32.5547 78.0898 32.4141C78.0586 32.2734 78.0352 32.1406 78.0195 32.0156C78.0195 31.8594 78.0273 31.7109 78.043 31.5703C78.0742 31.4141 78.0977 31.2734 78.1133 31.1484C78.1758 30.6953 78.2461 30.25 78.3242 29.8125C78.4023 29.375 78.4727 28.9297 78.5352 28.4766C78.5977 28.0703 78.6289 27.6484 78.6289 27.2109C78.6289 26.7578 78.5586 26.3359 78.418 25.9453L78.3945 25.8281C78.4258 25.7031 78.457 25.6016 78.4883 25.5234C78.5352 25.4297 78.5664 25.3281 78.582 25.2188C78.6133 25.0469 78.5742 24.9219 78.4648 24.8438C78.5117 24.7188 78.5898 24.6406 78.6992 24.6094C78.8086 24.5625 78.8711 24.4688 78.8867 24.3281C78.9023 24.2656 78.9023 24.2031 78.8867 24.1406C79.0117 24.0938 79.1367 24.0547 79.2617 24.0234C79.4023 23.9766 79.5352 23.9688 79.6602 24C79.8633 24.0312 80.043 24.1016 80.1992 24.2109C80.3555 24.3047 80.5039 24.4141 80.6445 24.5391C80.8945 25.2891 80.9961 26.0859 80.9492 26.9297C80.9023 27.7578 80.8242 28.5938 80.7148 29.4375C80.6055 30.2812 80.5352 31.1094 80.5039 31.9219C80.4727 32.7188 80.5977 33.4609 80.8789 34.1484L80.9258 34.1719C81.0039 34.1875 81.0664 34.1641 81.1133 34.1016C81.1602 34.0234 81.2227 33.9922 81.3008 34.0078C81.3633 34.0391 81.4023 34.0547 81.418 34.0547C81.4805 34.3672 81.582 34.6641 81.7227 34.9453C81.8633 35.2266 82.0195 35.5078 82.1914 35.7891ZM106.965 36.0469C106.887 36.2969 106.863 36.5469 106.895 36.7969C106.848 36.8594 106.793 36.8984 106.73 36.9141C106.668 36.9297 106.605 36.9531 106.543 36.9844C106.48 37 106.426 37.0312 106.379 37.0781C106.348 37.1094 106.348 37.1797 106.379 37.2891C105.863 37.3203 105.371 37.4297 104.902 37.6172C104.434 37.8047 103.973 38.0078 103.52 38.2266C103.285 38.1484 103.082 38.0547 102.91 37.9453C102.738 37.8359 102.52 37.7656 102.254 37.7344C101.988 37.2031 101.738 36.6484 101.504 36.0703C101.285 35.4766 101.176 34.8828 101.176 34.2891C101.176 33.8516 101.254 33.4531 101.41 33.0938C101.41 32.625 101.449 32.1641 101.527 31.7109C101.605 31.2578 101.691 30.8125 101.785 30.375C101.895 29.9219 101.988 29.4688 102.066 29.0156C102.145 28.5625 102.184 28.1016 102.184 27.6328V27.1172C102.152 27.1172 102.113 27.1562 102.066 27.2344C102.02 27.2969 101.973 27.375 101.926 27.4688C101.895 27.5469 101.863 27.625 101.832 27.7031C101.801 27.7812 101.777 27.8281 101.762 27.8438C101.496 28.0469 101.285 28.3047 101.129 28.6172C100.988 28.9141 100.832 29.1953 100.66 29.4609C100.441 29.7891 100.207 30.1094 99.957 30.4219C99.7227 30.7344 99.4258 30.9766 99.0664 31.1484V31.1953C99.0664 31.2734 99.043 31.3281 98.9961 31.3594C98.9492 31.3906 98.9414 31.4688 98.9727 31.5938C98.582 31.7188 98.2148 31.8984 97.8711 32.1328C97.543 32.3672 97.2695 32.6641 97.0508 33.0234C96.7383 33.1016 96.4414 33.2109 96.1602 33.3516C95.8945 33.4766 95.6211 33.6172 95.3398 33.7734C95.2148 33.8359 95.082 33.9141 94.9414 34.0078C94.8008 34.1016 94.6602 34.1641 94.5195 34.1953C94.3945 34.2422 94.2227 34.2734 94.0039 34.2891C93.8008 34.3047 93.582 34.3203 93.3477 34.3359C93.1289 34.3516 92.9102 34.3594 92.6914 34.3594H92.1758C92.0977 34.3594 91.9961 34.3203 91.8711 34.2422C91.7461 34.1641 91.6055 34.0781 91.4492 33.9844C91.3086 33.8906 91.1602 33.8047 91.0039 33.7266C90.8477 33.6328 90.6992 33.5703 90.5586 33.5391C90.4336 33.1328 90.2539 32.7734 90.0195 32.4609C89.8008 32.1328 89.5664 31.8047 89.3164 31.4766C89.2383 31.1016 89.1289 30.7109 88.9883 30.3047C88.8633 29.8984 88.6367 29.5625 88.3086 29.2969C88.3867 29.1875 88.4258 29.0625 88.4258 28.9219C88.4258 28.75 88.3867 28.5859 88.3086 28.4297C88.2305 28.2734 88.1914 28.1016 88.1914 27.9141C88.1914 27.7891 88.1992 27.6953 88.2148 27.6328C88.043 27.8203 87.918 28.0625 87.8398 28.3594C87.7773 28.6406 87.7461 28.8984 87.7461 29.1328C87.7461 29.3203 87.7695 29.4922 87.8164 29.6484C87.6602 29.8672 87.5586 30.1406 87.5117 30.4688C87.4805 30.7969 87.4648 31.0859 87.4648 31.3359C87.4648 31.6484 87.4883 31.9531 87.5352 32.25C87.2852 32.5 87.1602 32.8047 87.1602 33.1641C87.1602 33.3672 87.207 33.5469 87.3008 33.7031C87.3008 33.7656 87.2852 33.8125 87.2539 33.8438C87.2227 33.875 87.1836 33.8984 87.1367 33.9141C87.1055 33.9297 87.0664 33.9531 87.0195 33.9844C86.9883 34 86.9727 34.0391 86.9727 34.1016C86.9727 34.1797 86.9727 34.2656 86.9727 34.3594C86.9883 34.4531 86.9961 34.5469 86.9961 34.6406C86.9961 34.8594 86.9883 35.0859 86.9727 35.3203C86.957 35.5547 86.9492 35.7812 86.9492 36C86.9492 36.4531 86.9883 36.7812 87.0664 36.9844C87.1602 37.1719 87.2695 37.3125 87.3945 37.4062C87.5352 37.5 87.6836 37.5938 87.8398 37.6875C87.9961 37.7812 88.1523 37.9609 88.3086 38.2266C88.2617 38.3672 88.1758 38.4844 88.0508 38.5781C87.9414 38.6562 87.832 38.7422 87.7227 38.8359C87.6289 38.9141 87.543 39.0078 87.4648 39.1172C87.3867 39.2266 87.3555 39.3828 87.3711 39.5859H87.2539C87.0508 39.5859 86.8555 39.6172 86.668 39.6797C86.4805 39.7422 86.2852 39.7734 86.082 39.7734C86.0352 39.7734 85.9883 39.7656 85.9414 39.75C85.8945 39.75 85.8477 39.75 85.8008 39.75L85.5664 39.6094C85.4883 39.5625 85.4102 39.5391 85.332 39.5391C85.2539 39.5391 85.1523 39.5547 85.0273 39.5859C84.8086 38.8828 84.6367 38.1562 84.5117 37.4062C84.4023 36.6562 84.3477 35.9219 84.3477 35.2031C84.3477 35.125 84.3633 35.0469 84.3945 34.9688C84.4414 34.875 84.5039 34.8438 84.582 34.875V34.4297C84.582 33.9453 84.6211 33.4766 84.6992 33.0234C84.793 32.5547 84.8398 32.0703 84.8398 31.5703C84.8398 31.4297 84.832 31.2891 84.8164 31.1484C84.8164 31.0078 84.8086 30.875 84.793 30.75C84.8711 30.4844 84.9492 30.2188 85.0273 29.9531C85.1211 29.6719 85.168 29.3828 85.168 29.0859C85.168 28.9609 85.1445 28.8125 85.0977 28.6406C85.2227 28.5469 85.3164 28.4297 85.3789 28.2891C85.4414 28.1328 85.4883 27.9688 85.5195 27.7969C85.5508 27.6094 85.5742 27.4297 85.5898 27.2578C85.6055 27.0859 85.6211 26.9297 85.6367 26.7891C85.793 26.4766 85.8789 26.1406 85.8945 25.7812C85.9102 25.4219 85.9883 25.0859 86.1289 24.7734C86.1133 24.7109 86.1055 24.6016 86.1055 24.4453C86.1055 24.1328 86.1523 23.8203 86.2461 23.5078C86.3555 23.1797 86.5664 22.9297 86.8789 22.7578C87.1602 22.8672 87.4883 22.9219 87.8633 22.9219C88.2227 22.9219 88.5664 22.8672 88.8945 22.7578C88.9883 22.7891 89.0742 22.8281 89.1523 22.875C89.2305 22.9062 89.3086 22.9453 89.3867 22.9922C89.4805 23.0234 89.5742 23.0547 89.668 23.0859C89.7617 23.1016 89.8711 23.1016 89.9961 23.0859C90.1523 23.5391 90.2852 24 90.3945 24.4688C90.5195 24.9375 90.6133 25.4141 90.6758 25.8984C90.707 26.1016 90.7148 26.3203 90.6992 26.5547C90.6992 26.7891 90.7148 27.0078 90.7461 27.2109C90.7617 27.3359 90.8008 27.4531 90.8633 27.5625C90.9258 27.6562 90.9883 27.7656 91.0508 27.8906C91.1133 28.0156 91.1602 28.1562 91.1914 28.3125C91.2383 28.4688 91.2539 28.6641 91.2383 28.8984C91.4102 29.3047 91.5977 29.6953 91.8008 30.0703C92.0195 30.4297 92.2539 30.7891 92.5039 31.1484C92.6445 31.1953 92.7695 31.2578 92.8789 31.3359C92.9883 31.3984 93.0586 31.5078 93.0898 31.6641C93.2305 31.6641 93.3555 31.6875 93.4648 31.7344L93.8633 31.8516C94.457 31.6641 95.0039 31.4141 95.5039 31.1016C96.0195 30.7891 96.5586 30.5234 97.1211 30.3047C97.8086 29.6328 98.4023 28.8906 98.9023 28.0781C99.4023 27.25 99.9023 26.4297 100.402 25.6172V25.1016C100.496 25.0547 100.574 25 100.637 24.9375C100.715 24.8594 100.809 24.8047 100.918 24.7734C100.934 24.5859 100.973 24.4062 101.035 24.2344C101.113 24.0469 101.191 23.875 101.27 23.7188C101.363 23.5469 101.441 23.3828 101.504 23.2266C101.566 23.0547 101.598 22.875 101.598 22.6875C101.598 22.5781 101.59 22.4844 101.574 22.4062C101.809 22.1719 102.09 22.0547 102.418 22.0547C102.73 22.0547 103.043 22.1328 103.355 22.2891C103.684 22.4297 103.988 22.5625 104.27 22.6875C104.441 23.0625 104.566 23.4609 104.645 23.8828C104.738 24.2891 104.801 24.7109 104.832 25.1484C104.863 25.5859 104.879 26.0234 104.879 26.4609V28.125C104.863 28.25 104.816 28.3438 104.738 28.4062C104.676 28.4531 104.629 28.5312 104.598 28.6406V28.875C104.598 28.9531 104.59 29.0312 104.574 29.1094C104.574 29.4375 104.535 29.7812 104.457 30.1406C104.379 30.5938 104.277 31.0547 104.152 31.5234C104.043 31.9766 103.988 32.4375 103.988 32.9062C103.988 33.0781 103.996 33.25 104.012 33.4219C104.027 33.5938 104.059 33.7656 104.105 33.9375C104.027 34.0781 103.988 34.2578 103.988 34.4766C103.988 34.7266 104.027 34.9609 104.105 35.1797C104.199 35.3828 104.309 35.5859 104.434 35.7891C104.652 35.7891 104.871 35.7812 105.09 35.7656C105.309 35.75 105.535 35.7422 105.77 35.7422C105.988 35.7422 106.191 35.7656 106.379 35.8125C106.566 35.8438 106.762 35.9219 106.965 36.0469ZM112.801 35.7891C112.723 35.9141 112.629 36.0312 112.52 36.1406C112.41 36.2344 112.309 36.3359 112.215 36.4453C112.105 36.4922 111.98 36.5156 111.84 36.5156C111.715 36.5156 111.59 36.5156 111.465 36.5156C111.355 36.5 111.246 36.5 111.137 36.5156C111.043 36.5156 110.965 36.5469 110.902 36.6094C110.777 36.5781 110.684 36.5234 110.621 36.4453C110.559 36.3516 110.449 36.2969 110.293 36.2812C110.23 36.2656 110.168 36.2656 110.105 36.2812C109.871 36.0156 109.652 35.7344 109.449 35.4375C109.262 35.1406 109.082 34.8594 108.91 34.5938C108.895 34.0156 108.848 33.4297 108.77 32.8359C108.754 32.6953 108.73 32.5547 108.699 32.4141C108.668 32.2734 108.645 32.1406 108.629 32.0156C108.629 31.8594 108.637 31.7109 108.652 31.5703C108.684 31.4141 108.707 31.2734 108.723 31.1484C108.785 30.6953 108.855 30.25 108.934 29.8125C109.012 29.375 109.082 28.9297 109.145 28.4766C109.207 28.0703 109.238 27.6484 109.238 27.2109C109.238 26.7578 109.168 26.3359 109.027 25.9453L109.004 25.8281C109.035 25.7031 109.066 25.6016 109.098 25.5234C109.145 25.4297 109.176 25.3281 109.191 25.2188C109.223 25.0469 109.184 24.9219 109.074 24.8438C109.121 24.7188 109.199 24.6406 109.309 24.6094C109.418 24.5625 109.48 24.4688 109.496 24.3281C109.512 24.2656 109.512 24.2031 109.496 24.1406C109.621 24.0938 109.746 24.0547 109.871 24.0234C110.012 23.9766 110.145 23.9688 110.27 24C110.473 24.0312 110.652 24.1016 110.809 24.2109C110.965 24.3047 111.113 24.4141 111.254 24.5391C111.504 25.2891 111.605 26.0859 111.559 26.9297C111.512 27.7578 111.434 28.5938 111.324 29.4375C111.215 30.2812 111.145 31.1094 111.113 31.9219C111.082 32.7188 111.207 33.4609 111.488 34.1484L111.535 34.1719C111.613 34.1875 111.676 34.1641 111.723 34.1016C111.77 34.0234 111.832 33.9922 111.91 34.0078C111.973 34.0391 112.012 34.0547 112.027 34.0547C112.09 34.3672 112.191 34.6641 112.332 34.9453C112.473 35.2266 112.629 35.5078 112.801 35.7891ZM135.207 23.9297C135.145 24.1328 135.043 24.3203 134.902 24.4922L134.504 24.9844C134.379 25.1406 134.27 25.3125 134.176 25.5C134.098 25.6719 134.074 25.875 134.105 26.1094C134.074 26.1094 134.035 26.1094 133.988 26.1094C133.941 26.0938 133.902 26.0859 133.871 26.0859C133.621 26.0859 133.426 26.1484 133.285 26.2734C133.16 26.3828 132.988 26.4766 132.77 26.5547C132.738 26.4609 132.699 26.375 132.652 26.2969C132.605 26.2031 132.535 26.1406 132.441 26.1094C132.066 26.1875 131.691 26.25 131.316 26.2969C130.941 26.3281 130.566 26.375 130.191 26.4375C130.02 26.4688 129.848 26.5156 129.676 26.5781C129.504 26.625 129.324 26.6719 129.137 26.7188C129.043 26.75 128.941 26.7656 128.832 26.7656C128.723 26.75 128.613 26.75 128.504 26.7656C128.129 26.7812 127.723 26.8125 127.285 26.8594C126.848 26.8906 126.457 27.0078 126.113 27.2109C125.957 27.1797 125.793 27.1562 125.621 27.1406C125.449 27.125 125.277 27.1172 125.105 27.1172C124.73 27.1172 124.316 27.1562 123.863 27.2344C123.426 27.2969 123.035 27.4297 122.691 27.6328C122.613 27.6016 122.527 27.5781 122.434 27.5625C122.355 27.5469 122.262 27.5391 122.152 27.5391C122.121 27.5391 122.098 27.5469 122.082 27.5625C122.066 27.5625 122.043 27.5625 122.012 27.5625C121.996 27.7031 122.012 27.8438 122.059 27.9844C122.121 28.1094 122.223 28.2109 122.363 28.2891C122.301 28.4609 122.27 28.6484 122.27 28.8516C122.27 29.1172 122.285 29.3828 122.316 29.6484C122.363 29.9141 122.387 30.1797 122.387 30.4453C122.387 30.7422 122.348 30.9766 122.27 31.1484C122.426 31.6172 122.504 32.1172 122.504 32.6484C122.504 32.8359 122.488 33.0234 122.457 33.2109C122.441 33.3828 122.434 33.5703 122.434 33.7734C122.434 33.9453 122.496 34.0859 122.621 34.1953C122.746 34.2891 122.809 34.4219 122.809 34.5938C122.809 34.6562 122.793 34.7188 122.762 34.7812C122.98 34.7344 123.191 34.6719 123.395 34.5938C123.598 34.5 123.809 34.4531 124.027 34.4531C124.152 34.4531 124.27 34.4766 124.379 34.5234C124.504 34.5703 124.613 34.6328 124.707 34.7109C124.691 34.7891 124.676 34.875 124.66 34.9688C124.66 35.0625 124.66 35.1562 124.66 35.25C124.66 35.4219 124.66 35.5859 124.66 35.7422C124.676 35.8828 124.691 36.0391 124.707 36.2109C124.582 36.4297 124.434 36.625 124.262 36.7969C124.105 36.9688 123.996 37.1875 123.934 37.4531C123.699 37.4531 123.488 37.5078 123.301 37.6172C123.129 37.7109 122.965 37.8203 122.809 37.9453C122.652 38.0547 122.496 38.1641 122.34 38.2734C122.184 38.3672 122.012 38.4141 121.824 38.4141C121.59 38.4141 121.426 38.3828 121.332 38.3203C121.238 38.2422 121.168 38.1641 121.121 38.0859C121.074 38.0078 121.027 37.9375 120.98 37.875C120.949 37.8125 120.871 37.7891 120.746 37.8047C120.715 37.6016 120.652 37.4141 120.559 37.2422C120.465 37.0547 120.363 36.875 120.254 36.7031C120.16 36.5312 120.059 36.3594 119.949 36.1875C119.855 36 119.785 35.8125 119.738 35.625C119.645 35.2188 119.605 34.7969 119.621 34.3594C119.637 33.9219 119.566 33.5 119.41 33.0938C119.441 32.875 119.465 32.6562 119.48 32.4375C119.496 32.2031 119.504 31.9766 119.504 31.7578C119.504 31.3203 119.488 30.8906 119.457 30.4688C119.441 30.0312 119.426 29.5859 119.41 29.1328C119.301 28.9922 119.23 28.8359 119.199 28.6641C119.184 28.4766 119.168 28.2969 119.152 28.125C119.105 28.0781 119.051 28.0312 118.988 27.9844C118.941 27.9375 118.91 27.875 118.895 27.7969C118.77 27.7656 118.676 27.75 118.613 27.75C118.395 27.75 118.207 27.8047 118.051 27.9141C117.91 28.0078 117.777 28.0547 117.652 28.0547C117.527 28.0547 117.41 28.0391 117.301 28.0078C117.191 27.9766 117.082 27.9609 116.973 27.9609C116.879 27.9609 116.824 27.9844 116.809 28.0312C116.809 28.0625 116.777 28.0938 116.715 28.125C116.668 28.1562 116.559 28.1875 116.387 28.2188C116.215 28.25 116.02 28.2812 115.801 28.3125C115.598 28.3281 115.395 28.3438 115.191 28.3594C115.004 28.375 114.879 28.3828 114.816 28.3828C114.566 28.3828 114.379 28.3359 114.254 28.2422C114.113 28.1328 113.949 28.0156 113.762 27.8906C113.793 27.7969 113.809 27.7344 113.809 27.7031C113.809 27.5469 113.762 27.4219 113.668 27.3281C113.574 27.2188 113.527 27.125 113.527 27.0469C113.527 26.875 113.598 26.7422 113.738 26.6484C113.863 26.5547 113.934 26.4062 113.949 26.2031C114.309 26.0469 114.676 25.9297 115.051 25.8516C115.426 25.7734 115.809 25.7109 116.199 25.6641C116.59 25.6172 116.973 25.5625 117.348 25.5C117.738 25.4375 118.121 25.3359 118.496 25.1953C118.605 25.2109 118.707 25.2266 118.801 25.2422C118.91 25.2422 119.02 25.2422 119.129 25.2422C119.598 25.2422 120.059 25.1953 120.512 25.1016C120.98 24.9922 121.457 24.9375 121.941 24.9375C122.066 24.9375 122.191 24.9453 122.316 24.9609C122.441 24.9766 122.566 25 122.691 25.0312C123.316 24.9375 123.934 24.8359 124.543 24.7266C125.168 24.6172 125.809 24.5234 126.465 24.4453C126.777 24.4141 127.082 24.3906 127.379 24.375C127.691 24.3438 128.004 24.3047 128.316 24.2578C128.426 24.2422 128.504 24.2188 128.551 24.1875C128.613 24.1406 128.645 24.0547 128.645 23.9297C128.785 23.9922 128.941 24.0234 129.113 24.0234C129.379 24.0234 129.637 23.9766 129.887 23.8828C130.137 23.7891 130.395 23.7422 130.66 23.7422C130.723 23.7422 130.777 23.75 130.824 23.7656C130.871 23.7656 130.918 23.7656 130.965 23.7656C131.074 23.7656 131.129 23.7188 131.129 23.625C131.145 23.5156 131.223 23.4453 131.363 23.4141C131.473 23.3828 131.629 23.3594 131.832 23.3438C132.035 23.3281 132.246 23.3125 132.465 23.2969C132.699 23.2656 132.91 23.2344 133.098 23.2031C133.301 23.1562 133.449 23.0938 133.543 23.0156L133.707 22.7578C133.988 22.7734 134.191 22.8984 134.316 23.1328C134.457 23.3516 134.535 23.5938 134.551 23.8594C134.613 23.9219 134.699 23.9531 134.809 23.9531C134.934 23.9375 135.043 23.9297 135.137 23.9297H135.207Z" fill="white"/>
</svg>
